<?xml version="1.0" standalone="no"?>
<svg xmlns="http://www.w3.org/2000/svg" viewBox="0 0 142.2 36" width="142.2" height="36"><g fill="#000" color="#000" transform="translate(0 6.333333333333332) scale(0.5833334)"><svg width="48.0" height="40.0" x="0.0" y="0.0" viewBox="0 0 48 40"><path fill="currentColor" fill-rule="evenodd" d="M41.576 0L12.872 28.703v-2.95L38.625 0h-4.1l-10.9 10.898L12.725 0h-4.1l12.949 12.95-1.476 1.474L5.675 0h-4.1l16.474 16.475-1.475 1.475L0 1.376V40h2.9V8.378l2.087 2.086V40h2.9V13.364l2.086 2.087V40h2.9v-.146l10.752-10.752L34.525 40h2.951V15.253l2.086-2.087V40h2.9V10.266l2.087-2.086V40h2.898V5.434h-.153l.153-.154V1.178L12.872 35.754v-2.95L45.675 0h-4.1zm-8.849 20l1.848-1.848v3.697L32.727 20zm-19.855-1.65L14.522 20l-1.65 1.65V18.35zm16.329 5.176l1.476-1.474 3.898 3.899v2.952l-5.374-5.377zm-3.526 3.526l1.475-1.476 7.425 7.426v2.95l-8.9-8.9z"></path></svg></g><path fill="#000" fill-rule="nonzero" d="M9.96 1.85L13.58 1.85L8.45 11.93L8.45 18.94L5.14 18.94L5.14 11.93L0 1.85L3.62 1.85L6.82 8.74L9.96 1.85ZM22.82 12.74L22.82 12.74L22.82 11.50Q22.82 9.72 22.31 8.78Q21.79 7.85 20.16 7.85L20.16 7.85Q17.52 7.85 17.52 11.40L17.52 11.40L17.52 12.65Q17.52 16.46 20.16 16.46L20.16 16.46Q21.86 16.46 22.39 15.19L22.39 15.19Q22.82 14.18 22.82 12.74ZM25.94 12.02L25.94 12.02Q25.94 16.46 24.26 17.98L24.26 17.98Q22.85 19.27 20.16 19.27L20.16 19.27Q16.73 19.27 15.53 17.26L15.53 17.26Q14.40 15.41 14.40 12.02L14.40 12.02Q14.40 8.86 15.53 7.06L15.53 7.06Q16.78 5.04 20.08 5.04Q23.38 5.04 24.66 6.80Q25.94 8.57 25.94 12.02ZM37.85 15.14L37.85 15.14L37.85 15.50Q37.70 17.30 36.32 18.22Q34.94 19.13 32.88 19.13L32.88 19.13Q29.83 19.13 28.61 18.02L28.61 18.02Q27.48 17.02 27.48 15.05L27.48 15.05L27.48 14.76L30.31 14.76Q30.31 15.86 30.89 16.27Q31.46 16.68 32.88 16.68L32.88 16.68Q34.80 16.68 34.80 15.29L34.80 15.29Q34.80 14.14 34.13 13.75L34.13 13.75Q33.82 13.56 33.34 13.46L33.34 13.46L30.91 13.06Q27.74 12.55 27.74 9.10L27.74 9.10Q27.74 7.18 29.15 6.11Q30.55 5.04 32.71 5.04L32.71 5.04Q37.63 5.04 37.63 9.29L37.63 9.29L37.63 9.60L34.92 9.60Q34.87 8.47 34.32 8.06Q33.77 7.66 32.77 7.66Q31.78 7.66 31.27 8.05Q30.77 8.45 30.77 8.93L30.77 8.93Q30.77 10.30 31.87 10.49L31.87 10.49L34.78 11.02Q37.85 11.59 37.85 15.14ZM47.74 5.28L47.74 5.28L46.87 8.35Q46.51 8.21 46.06 8.21L46.06 8.21Q44.86 8.21 43.10 9.24L43.10 9.24L43.10 18.94L39.98 18.94L39.98 5.23L42.31 5.23L43.03 6.43L46.34 5.06Q46.58 5.04 46.99 5.04Q47.40 5.04 47.74 5.28ZM51.41 0Q52.54 0 52.87 0.35Q53.21 0.70 53.21 1.81Q53.21 2.93 52.86 3.28Q52.51 3.62 51.40 3.62Q50.28 3.62 49.93 3.26Q49.58 2.90 49.58 1.80Q49.58 0.70 49.93 0.35Q50.28 0 51.41 0ZM52.94 5.74L52.94 18.94L49.82 18.94L49.82 5.74L52.94 5.74ZM74.86 18.94L74.86 8.74L71.78 15.22Q71.11 16.51 70.12 16.51Q69.12 16.51 68.45 15.14L68.45 15.14L65.33 8.74L65.33 18.94L61.99 18.94L61.99 1.85L65.28 1.85L70.10 11.71L74.90 1.85L78.19 1.85L78.19 18.94L74.86 18.94ZM84.46 0.89L84.46 18.94L81.34 18.96L81.34 0.89L84.46 0.89ZM89.40 0Q90.53 0 90.86 0.35Q91.20 0.70 91.20 1.81Q91.20 2.93 90.85 3.28Q90.50 3.62 89.39 3.62Q88.27 3.62 87.92 3.26Q87.58 2.90 87.58 1.80Q87.58 0.70 87.92 0.35Q88.27 0 89.40 0ZM90.94 5.74L90.94 18.94L87.82 18.94L87.82 5.74L90.94 5.74ZM100.90 11.93L106.20 18.94L102.46 18.94L98.86 14.09L97.49 16.03L97.49 18.94L94.37 18.94L94.37 0.89L97.49 0.89L97.49 12.29L101.86 5.78L105.38 5.78L100.90 11.93Z" transform="translate(36, 8.532)"></path></svg>