<svg viewBox="0 0 20 20" fill="none" xmlns="http://www.w3.org/2000/svg" id="Linkedin-Logo--Streamline-Radix" height="20" width="20"><desc>Linkedin Logo Streamline Icon: https://streamlinehq.com</desc><path fill-rule="evenodd" clip-rule="evenodd" d="M2.6666666666666665 1.3333333333333333c-0.7363733333333333 0 -1.3333333333333333 0.5969599999999999 -1.3333333333333333 1.3333333333333333v14.666666666666666c0 0.7363999999999999 0.5969599999999999 1.3333333333333333 1.3333333333333333 1.3333333333333333h14.666666666666666c0.7363999999999999 0 1.3333333333333333 -0.5969333333333333 1.3333333333333333 -1.3333333333333333V2.6666666666666665c0 -0.7363733333333333 -0.5969333333333333 -1.3333333333333333 -1.3333333333333333 -1.3333333333333333H2.6666666666666665Zm1.4 6.666666666666666h2.533333333333333v8h-2.533333333333333V8Zm2.6999999999999997 -2.66c0 0.7916133333333333 -0.64172 1.4333333333333331 -1.4333333333333331 1.4333333333333331 -0.7916 0 -1.4333333333333331 -0.64172 -1.4333333333333331 -1.4333333333333331S4.541733333333333 3.9066666666666667 5.333333333333333 3.9066666666666667c0.7916133333333333 0 1.4333333333333331 0.64172 1.4333333333333331 1.4333333333333331ZM16 11.14284c0 -2.4067333333333334 -1.5554666666666668 -3.3424 -3.1006799999999997 -3.3424 -0.50596 -0.024933333333333335 -1.0097066666666665 0.08114666666666666 -1.4609999999999999 0.30765333333333333 -0.34269333333333335 0.172 -0.7014533333333333 0.5655466666666666 -0.9781066666666667 1.2499466666666665h-0.07116V8.000586666666667H8v8.00568h2.5415466666666666V11.748266666666666c-0.036746666666666664 -0.43609333333333333 0.10281333333333333 -0.9997066666666666 0.3883333333333333 -1.3351066666666667 0.2855333333333333 -0.3354 0.6939733333333333 -0.4154933333333333 1.0036533333333333 -0.4561733333333333h0.09657333333333332c0.8082133333333333 0 1.4080266666666665 0.5003599999999999 1.4080266666666665 1.7612533333333333v4.288026666666666h2.5414666666666665L16 11.14284Z" fill="#000000" stroke-width="1.3333"></path></svg>